<svg width="425" height="391" viewBox="0 0 425 391" fill="none" xmlns="http://www.w3.org/2000/svg">
<rect x="-155" y="-8" width="580" height="399" rx="184" fill="white"/>
<circle cx="215" cy="201" r="150" fill="#272626"/>
<circle cx="215" cy="201" r="44" fill="#3C3A3A"/>
<circle cx="215" cy="201" r="32" fill="#F1F0F0"/>
<circle r="5" transform="matrix(1 0 0 -1 215 201)" fill="#1C1C1C"/>
<path d="M215.899 257.591C198.274 262.097 187.333 252.276 184.066 246.802L136.245 305.77C153.151 327.444 194.182 335.667 212.585 337.07L215.899 257.591Z" fill="#3D3D3D"/>
<path d="M172.119 162.964C178.034 145.227 192.208 140.902 198.556 140.957L175.697 68.0669C148.385 71.3074 119.04 102.685 107.781 117.969L172.119 162.964Z" fill="#3D3D3D"/>
<line x1="351.889" y1="62.8891" x2="260.889" y2="153.889" stroke="black" stroke-width="11"/>
<rect x="264.709" y="135" width="22" height="26" transform="rotate(42.9326 264.709 135)" fill="#010101"/>
</svg>
