<svg width="300" height="300" viewBox="0 0 300 300" fill="none" xmlns="http://www.w3.org/2000/svg">
<circle cx="150" cy="150" r="150" fill="#272626"/>
<circle cx="150" cy="150" r="44" fill="#3C3A3A"/>
<circle cx="150" cy="150" r="32" fill="#F1F0F0"/>
<circle r="5" transform="matrix(1 0 0 -1 150 150)" fill="#1C1C1C"/>
<path d="M150.899 206.591C133.274 211.097 122.333 201.276 119.066 195.802L71.2446 254.77C88.1508 276.444 129.182 284.667 147.585 286.07L150.899 206.591Z" fill="#3D3D3D"/>
<path d="M107.119 111.964C113.034 94.2266 127.208 89.902 133.556 89.9569L110.697 17.0669C83.3851 20.3074 54.0398 51.6849 42.7811 66.9686L107.119 111.964Z" fill="#3D3D3D"/>
<line x1="286.889" y1="11.8891" x2="195.889" y2="102.889" stroke="black" stroke-width="11"/>
<rect x="199.71" y="84.0001" width="22" height="26" transform="rotate(42.9326 199.71 84.0001)" fill="#010101"/>
</svg>
